<?xml version="1.0" encoding="utf-8"?>
<!-- Generator: Adobe Illustrator 19.0.0, SVG Export Plug-In . SVG Version: 6.00 Build 0)  -->
<svg version="1.1" id="Layer_1" xmlns="http://www.w3.org/2000/svg" xmlns:xlink="http://www.w3.org/1999/xlink" x="0px" y="0px"
	 viewBox="-641 3244.7 239.6 30" style="enable-background:new -641 3244.7 239.6 30;" xml:space="preserve">
<style type="text/css">
	.st0{fill:#FFFFFF;}
</style>
<g>
	<path class="st0" d="M-632.7,3272.5c-1.3,0-2.5-0.1-3.5-0.4c-1-0.2-1.9-0.6-2.7-1v-3.9c0.9,0.5,1.9,0.9,2.9,1.2
		c1,0.3,2.1,0.5,3.3,0.5c0.7,0,1.4-0.1,2-0.2c0.6-0.1,1.2-0.4,1.7-0.7c0.5-0.3,0.9-0.7,1.1-1.2c0.3-0.5,0.4-1.1,0.4-1.7
		c0-0.7-0.1-1.3-0.4-1.8c-0.3-0.5-0.7-1-1.3-1.4c-0.6-0.4-1.2-0.9-2.1-1.4c-0.8-0.5-1.5-1.1-2.2-1.7s-1.3-1.4-1.7-2.2
		c-0.4-0.8-0.6-1.8-0.6-3c0-1.2,0.2-2.2,0.6-3.2c0.4-0.9,1-1.7,1.8-2.4c0.8-0.7,1.7-1.2,2.8-1.5c1.1-0.4,2.2-0.5,3.4-0.5
		c1.3,0,2.5,0.1,3.6,0.4c1.1,0.3,2.1,0.7,3.1,1.2l-1.5,3.3c-0.8-0.4-1.6-0.7-2.5-1s-1.8-0.4-2.7-0.4c-0.6,0-1.2,0.1-1.7,0.2
		c-0.5,0.2-1,0.4-1.4,0.7c-0.4,0.3-0.7,0.7-0.9,1.2c-0.2,0.5-0.3,1-0.3,1.6c0,0.7,0.1,1.3,0.4,1.7c0.3,0.5,0.7,0.9,1.2,1.3
		c0.5,0.4,1.1,0.8,1.9,1.3c1,0.6,1.9,1.3,2.6,1.9c0.7,0.7,1.3,1.4,1.6,2.2c0.4,0.8,0.6,1.8,0.6,2.9c0,1.3-0.2,2.5-0.7,3.5
		c-0.5,1-1.1,1.8-2,2.5c-0.9,0.7-1.9,1.1-3,1.5C-630.1,3272.4-631.3,3272.5-632.7,3272.5z"/>
	<path class="st0" d="M-623,3272.2l13.8-25.8h4.9l2.9,25.8h-4.1l-0.7-7.2h-8.6l-3.7,7.2H-623z M-613,3261.4h6.5l-0.6-6.3
		c-0.1-0.8-0.1-1.6-0.2-2.5c-0.1-0.9-0.1-1.7-0.1-2.5h-0.1c-0.3,0.8-0.6,1.6-1,2.4c-0.4,0.8-0.8,1.7-1.3,2.5L-613,3261.4z"/>
	<path class="st0" d="M-598.2,3272.2l5.5-25.8h13.7l-0.7,3.6h-9.5l-1.7,8.1h8.9l-0.8,3.6h-8.9l-2.2,10.6H-598.2z"/>
	<path class="st0" d="M-572.1,3272.5c-1.5,0-2.8-0.3-3.9-0.9s-2-1.4-2.6-2.5c-0.6-1.1-0.9-2.5-0.9-4.1c0-1.6,0.2-3.2,0.7-4.7
		c0.5-1.5,1.1-2.9,2-4.1c0.9-1.2,2-2.2,3.3-2.9c1.3-0.7,2.7-1.1,4.4-1.1c2,0,3.5,0.5,4.5,1.4c1,0.9,1.5,2.1,1.5,3.6
		c0,1-0.2,1.9-0.7,2.8c-0.5,0.8-1.2,1.6-2.1,2.2c-0.9,0.6-2.1,1.1-3.5,1.4c-1.4,0.3-3.1,0.5-5,0.5h-0.8c0,0.2,0,0.4,0,0.5
		c0,0.2,0,0.4,0,0.5c0,1.3,0.3,2.3,1,3.1c0.7,0.7,1.7,1.1,3,1.1c1,0,1.9-0.1,2.7-0.4s1.8-0.6,2.8-1.1v3.3c-1,0.5-1.9,0.8-2.9,1.1
		S-570.8,3272.5-572.1,3272.5z M-574.8,3261h0.6c1.4,0,2.7-0.1,3.7-0.4c1.1-0.3,1.9-0.7,2.5-1.2c0.6-0.5,0.9-1.2,0.9-2
		c0-0.6-0.2-1.1-0.6-1.4c-0.4-0.3-1-0.5-1.7-0.5c-0.7,0-1.5,0.2-2.2,0.7c-0.7,0.5-1.4,1.1-1.9,1.9
		C-574,3258.9-574.5,3259.9-574.8,3261z"/>
	<path class="st0" d="M-544.3,3265.5c0,1.5-0.4,2.8-1.2,3.9c-0.8,1-1.8,1.8-3.2,2.3c-1.3,0.5-2.8,0.8-4.5,0.8c-1,0-2,0-2.9-0.1
		c-0.9-0.1-1.6-0.2-2.3-0.4c-0.7-0.2-1.3-0.4-1.9-0.6v-1.8c0.9,0.4,2,0.7,3.2,0.9s2.5,0.4,3.9,0.4c1.3,0,2.5-0.2,3.6-0.6
		c1-0.4,1.9-1,2.5-1.8c0.6-0.8,0.9-1.8,0.9-3c0-1.1-0.3-1.9-0.8-2.6c-0.5-0.7-1.3-1.3-2.3-1.7s-2.3-1-3.8-1.5
		c-1.1-0.4-2-0.8-2.9-1.2c-0.9-0.4-1.6-0.9-2.2-1.4c-0.6-0.5-1.1-1.2-1.4-1.9c-0.3-0.8-0.5-1.7-0.5-2.7c0-1.4,0.4-2.6,1.1-3.6
		c0.7-1,1.7-1.7,2.9-2.2c1.2-0.5,2.6-0.8,4.2-0.8c1.2,0,2.4,0.1,3.5,0.3c1.1,0.2,2.2,0.6,3.2,1l-0.6,1.6c-1-0.4-2.1-0.8-3.1-1
		c-1-0.2-2.1-0.3-3.1-0.3c-1.2,0-2.3,0.2-3.2,0.5c-0.9,0.4-1.7,0.9-2.3,1.6c-0.6,0.7-0.8,1.6-0.8,2.7c0,1.1,0.3,2,0.8,2.7
		c0.5,0.7,1.2,1.3,2.2,1.7c0.9,0.5,2.1,0.9,3.4,1.3c1.5,0.5,2.8,1.1,4,1.6c1.1,0.6,2,1.3,2.6,2.2
		C-544.6,3263-544.3,3264.1-544.3,3265.5z"/>
	<path class="st0" d="M-531.5,3272.5c-1.9,0-3.5-0.4-4.8-1.2c-1.3-0.8-2.3-1.9-3-3.4s-1-3.2-1-5.3c0-2.1,0.4-3.9,1.1-5.4
		s1.8-2.6,3.2-3.5c1.4-0.8,3-1.2,4.9-1.2c0.9,0,1.8,0.1,2.6,0.2c0.8,0.2,1.5,0.4,2.1,0.7l-0.5,1.6c-0.7-0.3-1.4-0.5-2.1-0.7
		s-1.5-0.2-2.1-0.2c-1.6,0-2.9,0.3-4,1c-1.1,0.7-1.9,1.7-2.5,2.9c-0.6,1.3-0.9,2.8-0.9,4.5c0,1.6,0.2,3,0.7,4.3s1.3,2.2,2.3,2.9
		s2.3,1.1,3.9,1.1c0.9,0,1.8-0.1,2.7-0.3c0.8-0.2,1.6-0.4,2.3-0.7v1.6c-0.6,0.3-1.3,0.5-2.2,0.7
		C-529.5,3272.5-530.5,3272.5-531.5,3272.5z"/>
	<path class="st0" d="M-514.4,3252.7c0.5,0,1,0,1.4,0.1c0.4,0.1,0.9,0.1,1.3,0.2l-0.3,1.6c-0.4-0.1-0.8-0.2-1.2-0.2
		c-0.4-0.1-0.8-0.1-1.3-0.1c-0.9,0-1.7,0.2-2.4,0.5c-0.7,0.3-1.3,0.8-1.8,1.5s-0.9,1.4-1.1,2.3c-0.3,0.9-0.4,1.9-0.4,3v10.6h-1.8
		V3253h1.5l0.2,3.6h0.1c0.3-0.7,0.7-1.4,1.2-2c0.5-0.6,1.2-1.1,2-1.4S-515.4,3252.7-514.4,3252.7z"/>
	<path class="st0" d="M-493.1,3253v19.2h-1.4l-0.3-3.5h-0.1c-0.3,0.7-0.8,1.3-1.4,1.9s-1.3,1-2.2,1.4c-0.9,0.3-1.9,0.5-3,0.5
		c-1.5,0-2.7-0.3-3.7-0.8s-1.7-1.3-2.3-2.3s-0.8-2.3-0.8-3.9V3253h1.8v12.4c0,1.9,0.4,3.3,1.3,4.2c0.9,0.9,2.1,1.4,3.8,1.4
		c1.4,0,2.6-0.3,3.6-0.8s1.7-1.4,2.2-2.5c0.5-1.1,0.8-2.5,0.8-4.1V3253H-493.1z"/>
	<path class="st0" d="M-466.8,3252.6c1.8,0,3.3,0.5,4.4,1.6c1.1,1.1,1.6,2.8,1.6,5.1v12.9h-1.7v-12.8c0-1.8-0.4-3.1-1.2-3.9
		s-1.9-1.3-3.2-1.3c-1.8,0-3.3,0.5-4.3,1.6c-1,1.1-1.5,2.7-1.5,5v11.4h-1.8v-12.8c0-1.2-0.2-2.2-0.6-2.9c-0.4-0.8-0.9-1.3-1.5-1.7
		c-0.7-0.4-1.4-0.6-2.3-0.6c-1.2,0-2.2,0.2-3.1,0.7c-0.9,0.5-1.5,1.2-2,2.3s-0.7,2.3-0.7,3.9v11.1h-1.8V3253h1.4l0.3,3.1h0.1
		c0.3-0.6,0.7-1.2,1.3-1.7c0.5-0.5,1.2-1,2-1.3c0.8-0.3,1.7-0.5,2.8-0.5c1.4,0,2.5,0.3,3.5,0.9s1.6,1.5,2,2.7h0.1
		c0.5-1.2,1.3-2.1,2.4-2.7C-469.7,3253-468.4,3252.6-466.8,3252.6z"/>
	<path class="st0" d="M-455,3270.9c0-0.5,0.1-0.9,0.4-1.2s0.6-0.4,1-0.4c0.5,0,0.9,0.1,1.1,0.4s0.4,0.7,0.4,1.2s-0.1,0.9-0.4,1.2
		s-0.6,0.4-1.1,0.4c-0.5,0-0.8-0.1-1-0.4S-455,3271.5-455,3270.9z"/>
	<path class="st0" d="M-437.7,3252.6c2.2,0,3.8,0.6,5,1.7c1.2,1.1,1.7,2.9,1.7,5.3v12.5h-1.8v-12.4c0-1.9-0.4-3.3-1.3-4.2
		c-0.9-0.9-2.1-1.3-3.8-1.3c-2.1,0-3.7,0.6-4.8,1.8c-1.1,1.2-1.7,3.1-1.7,5.6v10.6h-1.8V3253h1.4l0.3,3.5h0.1
		c0.3-0.7,0.8-1.4,1.4-1.9c0.6-0.6,1.3-1,2.2-1.4C-439.8,3252.8-438.8,3252.6-437.7,3252.6z"/>
	<path class="st0" d="M-423,3272.2h-1.8v-27.5h1.8V3272.2z"/>
</g>
</svg>
